<svg xmlns="http://www.w3.org/2000/svg" xmlns:xlink="http://www.w3.org/1999/xlink" width="85.731" height="67.429" viewBox="0 0 80.373 63.215"><defs><linearGradient id="a"><stop offset="0"/><stop offset="1" stop-opacity="0"/></linearGradient><linearGradient xlink:href="#a" id="c" gradientUnits="userSpaceOnUse" gradientTransform="matrix(.10118 0 0 1 -520.168 -1.515)" x1="349.043" y1="512.436" x2="513.78" y2="512.183"/><linearGradient xlink:href="#a" id="d" gradientUnits="userSpaceOnUse" gradientTransform="matrix(.10118 0 0 1 413.678 -1.263)" x1="349.043" y1="512.436" x2="513.78" y2="512.183"/><mask maskUnits="userSpaceOnUse" id="b"><path d="M493.135 510.756a26.212 26.212 0 01-26.212 26.212 26.212 26.212 0 01-26.212-26.212 26.212 26.212 0 0126.212-26.212 26.212 26.212 0 0126.212 26.212z" fill="#ffdd67"/></mask></defs><g transform="rotate(-8.967 57.334 -48.185) scale(.87373)"><circle r="30" cy="32" cx="32" fill="#ffdd67"/><g fill="#664e27"><circle r="5" cy="24.5" cx="20.5"/><circle r="5" cy="24.5" cx="43.5"/><path d="M49 38c0-.8-.5-1.8-1.8-2.1-3.5-.7-8.6-1.3-15.2-1.3s-11.7.7-15.2 1.3c-1.3.3-1.8 1.3-1.8 2.1 0 7.3 5.6 14.6 17 14.6S49 45.3 49 38"/></g><path d="M44.7 38.3c-2.2-.4-6.8-1-12.7-1-5.9 0-10.5.6-12.7 1-1.3.2-1.4.7-1.3 1.5.1.4.1 1 .3 1.6.1.6.3.9 1.3.8 1.9-.2 23-.2 24.9 0 1 .1 1.1-.2 1.3-.8.1-.6.2-1.1.3-1.6 0-.8-.1-1.3-1.4-1.5" fill="#fff"/></g><g mask="url(#b)" transform="rotate(-8.967 -2801.8 2992.323)"><path d="M-479.296 483.73l22.071-.235 1.092 56.146-26.299-.631z" transform="scale(-1 1)" fill="url(#c)"/><path d="M453.935 486.044l18.355-2.14-2.063 54.203-15.56-.997z" fill="url(#d)"/></g><path d="M25.324 3.581A30 30 0 00.367 37.891a30 30 0 0034.309 24.957 30 30 0 00.614-.119L25.946 3.515a30 30 0 00-.622.066z" fill="#ffdd67"/><path d="M22.41 26.819a5 5 0 01-4.159 5.718 5 5 0 01-5.718-4.16 5 5 0 014.16-5.718 5 5 0 015.718 4.16zM30.405 35.783a88.172 88.172 0 00-14.81 3.652c-1.238.498-1.577 1.566-1.452 2.356 1.138 7.21 7.807 13.548 19.068 11.772.212-.034.406-.085.613-.123l-2.8-17.747c-.21.032-.407.056-.619.09z" fill="#664e27"/><path d="M30.826 38.449c-5.828.92-10.277 2.229-12.388 2.967-1.253.4-1.275.91-1.051 1.684.16.38.255.972.546 1.533.192.578.436.844 1.408.589.956-.256 6.966-1.253 12.843-2.177l-.74-4.686c-.208.031-.406.056-.618.09z" fill="#fff"/><g><path d="M45.697.367a30 30 0 0134.31 24.957 30 30 0 01-24.958 34.31 30 30 0 01-.62.076L45.084.495a30 30 0 01.612-.128z" fill="#ffdd67"/><path d="M55.624 21.578a5 5 0 005.718 4.16 5 5 0 004.16-5.719 5 5 0 00-5.718-4.16 5 5 0 00-4.16 5.719zM50.778 32.568a88.172 88.172 0 0115.216-1.086c1.33.093 1.982 1.005 2.106 1.795 1.138 7.21-3.256 15.294-14.516 17.07-.213.034-.412.045-.622.073l-2.8-17.747c.209-.034.404-.072.616-.105z" fill="#664e27"/><path d="M51.199 35.234c5.828-.92 10.464-1.044 12.7-.992 1.315-.005 1.492.474 1.518 1.28-.036.41.057 1.003-.047 1.626-.006.609-.155.937-1.159.994-.988.05-7.013.952-12.889 1.883l-.74-4.686c.209-.035.405-.072.617-.105z" fill="#fff"/></g></svg>
